<?xml version="1.0" encoding="utf-8"?>
<!-- Generator: Adobe Illustrator 23.0.6, SVG Export Plug-In . SVG Version: 6.00 Build 0)  -->
<svg version="1.1" id="Capa_1" xmlns="http://www.w3.org/2000/svg" xmlns:xlink="http://www.w3.org/1999/xlink" x="0px" y="0px"
	 viewBox="0 0 47 47" style="enable-background:new 0 0 47 47;" xml:space="preserve">
<style type="text/css">
	.st0{fill:#333366;}
	.st1{fill:#FFFFFF;}
	.st2{fill:#333366;stroke:#333366;stroke-width:86;stroke-miterlimit:10;}
</style>
<rect x="380.9" y="-741.5" class="st0" width="1000" height="1000"/>
<g>
	<g>
		<g id="Layer_1_78_">
			<g>
				<path class="st1" d="M1168.8-44.2H568.7c-16.6,0-30,13.4-30,30c0,16.6,13.4,30,30,30h600.2c16.6,0,30-13.4,30-30
					C1198.8-30.7,1185.4-44.2,1168.8-44.2z"/>
				<path class="st1" d="M606.2-122.2c-16.6,0-30,13.4-30,30s13.4,30,30,30h525.2c16.6,0,30-13.4,30-30s-13.4-30-30-30h-7.5v-270.1
					h7.5c8.3,0,15-6.7,15-15s-6.7-15-15-15H606.2c-8.3,0-15,6.7-15,15c0,8.3,6.7,15,15,15h7.5v270.1L606.2-122.2L606.2-122.2z
					 M1063.8-392.3v270.1h-90v-270.1H1063.8z M913.7-392.3v270.1h-90v-270.1H913.7z M673.7-392.3h90v270.1h-90V-392.3z"/>
				<path class="st1" d="M568.7-449.3h600.2c0.1,0,0.2,0,0.3,0c16.6,0,30-13.4,30-30c0-13.2-8.5-24.4-20.3-28.4l-297.8-134
					c-7.8-3.5-16.8-3.5-24.6,0l-300.1,135c-12.9,5.8-20,19.8-17,33.7C542.3-459.1,554.5-449.3,568.7-449.3z"/>
			</g>
		</g>
	</g>
	<g>
		<path class="st2" d="M1195.7-309.6c79.4,64.4,127.8,164.3,56.9,251.7c-65.4,80.6-182.9,36.7-226.4,49.7
			C993.8,1.5,974,35.9,933.1,2.7c-26.7-21.6-22.1-53.9-6-73.7c59.9-73.8,181.9-2.5,231.2-63.3c27.1-33.5,21-71.4-16.2-101.6
			c-79.4-64.4-114.7,42.6-174.8-6.2c-21.7-17.6-29.8-45.7-9.6-70.5C1006.9-373.4,1120.1-370.9,1195.7-309.6z M902.9,45
			c27.9,22.6,32.3,64.2,9.6,92.1c-22.7,27.9-64.2,32.2-92.1,9.6s-32.3-64.1-9.6-92.1C833.5,26.7,875,22.4,902.9,45z"/>
	</g>
	<g>
		<path class="st1" d="M1195.7-309.6c79.4,64.4,127.8,164.3,56.9,251.7c-65.4,80.6-182.9,36.7-226.4,49.7
			C993.8,1.5,974,35.9,933.1,2.7c-26.7-21.6-22.1-53.9-6-73.7c59.9-73.8,181.9-2.5,231.2-63.3c27.1-33.5,21-71.4-16.2-101.6
			c-79.4-64.4-114.7,42.6-174.8-6.2c-21.7-17.6-29.8-45.7-9.6-70.5C1006.9-373.4,1120.1-370.9,1195.7-309.6z M902.9,45
			c27.9,22.6,32.3,64.2,9.6,92.1c-22.7,27.9-64.2,32.2-92.1,9.6s-32.3-64.1-9.6-92.1C833.5,26.7,875,22.4,902.9,45z"/>
	</g>
	<polygon class="st0" points="1025.3,-151.7 1034.4,-212.3 1082.1,-234.3 1134.4,-217.6 1145,-166.8 1123.8,-137.3 1031.4,-128.2 	
		"/>
</g>
</svg>
