<svg height="512pt" viewBox="-60 0 512 512.00228" width="512pt" xmlns="http://www.w3.org/2000/svg"><path d="m390.316406 148.367188c2.296875-2.480469 2.675782-6.179688.933594-9.074219l-21.113281-35.082031c-2.160157-3.589844-6.824219-4.75-10.417969-2.589844-3.589844 2.164062-4.75 6.828125-2.589844 10.417968l18.171875 30.191407-51.144531 55.199219v-71.320313c0-8.539063-7.8125-15.128906-24.300781-20.296875l13.746093-25.113281c2.015626-3.679688.664063-8.292969-3.011718-10.304688-3.679688-2.015625-8.289063-.664062-10.304688 3.011719l-15.621094 28.535156c-.617187-.128906-1.234374-.257812-1.867187-.386718-21.40625-4.300782-49.234375-6.8125-79.035156-7.179688v-43.386719c0-4.191406-3.402344-7.589843-7.59375-7.589843-4.191407 0-7.589844 3.398437-7.589844 7.589843v43.386719c-29.804687.367188-57.632813 2.878906-79.039063 7.183594-.628906.125-1.246093.253906-1.863281.382812l-15.621093-28.535156c-2.015626-3.675781-6.628907-5.027344-10.304688-3.011719-3.675781 2.011719-5.027344 6.625-3.011719 10.304688l13.746094 25.113281c-16.484375 5.167969-24.296875 11.757812-24.296875 20.296875v71.320313l-51.148438-55.199219 51.3125-85.257813 127.820313-41.402344 127.820313 41.402344 17.542968 29.148438c2.164063 3.589844 6.828125 4.75 10.417969 2.585937 3.59375-2.160156 4.75-6.824219 2.589844-10.417969l-19.007813-31.578124c-.945312-1.566407-2.421875-2.742188-4.164062-3.304688l-132.863282-43.035156c-1.519531-.496094-3.15625-.496094-4.675781 0l-132.863281 43.035156c-1.738281.5625-3.21875 1.738281-4.164062 3.304688l-55.714844 92.578124c-1.746094 2.898438-1.363282 6.597657.933594 9.074219l66.164062 71.402344v3.933594c-17.925781 3.167969-31.585938 18.84375-31.585938 37.660156 0 18.824219 13.667969 34.5 31.59375 37.664063.320313 54.015624 34.265626 100.199218 81.921876 118.644531v9.082031c0 .851562.027343 1.691406.070312 2.53125h-34.867188c-4.191406 0-7.589843 3.398438-7.589843 7.589844s3.398437 7.589844 7.589843 7.589844h13.226563l13.035156 52.359374h-79.011719v-9.847656c0-16.996094 10.085938-32.332031 25.695313-39.0625 3.851563-1.660156 5.625-6.125 3.964844-9.976562-1.660157-3.847656-6.125-5.621094-9.972657-3.960938-21.183593 9.132813-34.867187 29.9375-34.867187 53v17.4375c0 4.195313 3.398437 7.59375 7.589844 7.59375h282.378906c4.191406 0 7.59375-3.398437 7.59375-7.59375v-17.4375c0-31.8125-25.882813-57.691406-57.691406-57.691406h-45.117188c.046875-.835938.074219-1.679688.074219-2.527344v-9.082031c47.660156-18.441406 81.609375-64.628906 81.925781-118.644531 17.929688-3.164063 31.59375-18.84375 31.59375-37.664063 0-18.820312-13.660156-34.496093-31.582031-37.664062v-3.933594zm-81.347656 139.398437c0 16.640625-13.539062 30.179687-30.179688 30.179687-41.371093 0-75.027343-33.65625-75.027343-75.027343v-5.425781h77.183593c15.453126 0 28.023438 12.570312 28.023438 28.019531zm-28.023438-65.457031h-84.777343c-.015625 0-.03125 0-.046875 0h-84.734375c-10.683594 0-20.46875 3.910156-28.019531 10.359375v-16.359375c0-.003906 0-.011719 0-.019532 0-.003906 0-.007812 0-.011718v-23.160156c7.574218 4.730468 16.925781 8.257812 25.515624 10.800781 23.417969 6.925781 54.417969 10.742187 87.289063 10.742187 32.867187 0 63.863281-3.816406 87.28125-10.742187 8.59375-2.542969 17.945313-6.074219 25.519531-10.804688v23.136719c0 .011719-.003906.027344-.003906.042969 0 .019531.003906.039062.003906.058593v16.320313c-7.550781-6.453125-17.335937-10.363281-28.027344-10.363281zm-197.578124 43.203125c0-15.449219 12.570312-28.019531 28.019531-28.019531h77.1875v5.425781c0 20.042969-7.800781 38.882812-21.972657 53.050781-14.175781 14.171875-33.019531 21.976562-53.058593 21.976562-1.558594 0-3.125-.121093-4.648438-.355468-14.550781-2.25-25.527343-15.070313-25.527343-29.820313zm0-138.710938c1.675781-1.949219 10.214843-7.011719 34.019531-11.28125 21.632812-3.878906 49.613281-6.011719 78.785156-6.011719 29.164063 0 57.144531 2.132813 78.78125 6.011719 23.804687 4.269531 32.34375 9.335938 34.019531 11.28125v26.4375c-6.523437-2.914062-15.214844-5.4375-26.175781-7.640625-23.21875-4.664062-53.984375-7.234375-86.625-7.234375-32.648437 0-63.414063 2.570313-86.632813 7.234375-10.960937 2.203125-19.644531 4.726563-26.171874 7.640625zm0 44.042969c1.675781-1.949219 10.21875-7.015625 34.019531-11.28125 21.636719-3.882812 49.617187-6.019531 78.78125-6.019531 29.164062 0 57.140625 2.136719 78.777343 6.019531 23.808594 4.265625 32.347657 9.332031 34.027344 11.28125v.605469c0 4.378906-9.335937 11.847656-29.828125 17.910156-22.058593 6.527344-51.527343 10.121094-82.976562 10.121094-72.984375 0-112.800781-18.515625-112.800781-28.03125zm-31.582032 90.519531c0-10.40625 6.921875-19.21875 16.402344-22.089843v44.175781c-9.480469-2.871094-16.402344-11.683594-16.402344-22.085938zm101.878906 183.097657c4.816407 11.523437 14.191407 20.675781 25.855469 25.214843l-23.863281 20.84375-11.464844-46.058593zm42.503907 30.832031 24.640625 21.527343h-49.285156zm133.601562 11.679687v9.847656h-79.019531l13.039062-52.359374h23.46875c23.441407 0 42.511719 19.070312 42.511719 42.511718zm-81.625-42.511718-11.46875 46.058593-23.863281-20.84375c11.664062-4.539062 21.039062-13.691406 25.859375-25.210937h9.472656zm-21.109375-17.710938c0 17.023438-13.847656 30.871094-30.867187 30.871094-17.023438 0-30.871094-13.847656-30.871094-30.871094v-4.277344c9.890625 2.460938 20.230469 3.773438 30.871094 3.773438s20.976562-1.3125 30.867187-3.773438zm-30.863281-15.6875c-53.28125 0-98.050781-37.132812-109.792969-86.878906 5.765625 4.28125 12.628906 7.242187 20.207032 8.414062 2.289062.351563 4.632812.527344 6.957031.527344 24.09375 0 46.75-9.382812 63.792969-26.417969 8.070312-8.070312 14.398437-17.410156 18.847656-27.554687 13.984375 31.75 45.746094 53.976562 82.605468 53.976562 10.199219 0 19.625-3.386718 27.207032-9.089844-11.6875 49.816407-56.492188 87.023438-109.824219 87.023438zm144.386719-149.699219c0 10.402344-6.925782 19.214844-16.402344 22.085938v-44.175781c9.476562 2.871093 16.402344 11.683593 16.402344 22.089843zm0 0"/><path d="m220.300781 348.195312c-15.5625 5.605469-32.703125 5.605469-48.265625 0-3.945312-1.421874-8.292968.628907-9.710937 4.570313-1.421875 3.945313.625 8.292969 4.570312 9.714844 9.4375 3.398437 19.355469 5.097656 29.273438 5.097656s19.835937-1.699219 29.277343-5.097656c3.945313-1.421875 5.988282-5.769531 4.570313-9.714844-1.421875-3.945313-5.769531-5.992187-9.714844-4.570313zm0 0"/></svg>